<?xml version="1.0" encoding="UTF-8"?>
<svg width="25px" height="24px" viewBox="0 0 25 24" version="1.1" xmlns="http://www.w3.org/2000/svg" xmlns:xlink="http://www.w3.org/1999/xlink">
    <title>666D3651-6777-4342-9812-1D6E1C9E764B</title>
    <defs>
        <filter id="filter-1">
            <feColorMatrix in="SourceGraphic" type="matrix" values="#48288f"></feColorMatrix>
        </filter>
        <polygon id="path-2" points="0 0 24.017 0 24.017 16.0002654 0 16.0002654"></polygon>
    </defs>
    <g id="Page-1" stroke="none" stroke-width="1" fill="#48288f" fill-rule="evenodd">
        <g id="Homepage-1" transform="translate(-1365.000000, -86.000000)">
            <g id="Group-8" transform="translate(60.000000, 26.000000)" filter="url(#filter-1)">
                <g transform="translate(1305.000000, 60.000000)">
                    <g id="Group-3" transform="translate(0.000000, 0.000200)">
                        <mask id="mask-3" fill="white">
                            <use xlink:href="#path-2"></use>
                        </mask>
                        <g id="Clip-2"></g>
                        <path d="M7,16 L21,16 C21.489,16.008 21.912,15.661 22,15.18 L24,4.18 C24.055,3.889 23.978,3.589 23.79,3.36 C23.595,3.126 23.305,2.994 23,3 L8,3 C7.448,3 7,3.448 7,4 C7,4.552 7.448,5 8,5 L21.8,5 L20.16,14 L7.81,14 L5,0.79 C4.899,0.321 4.479,-0.011 4,0 L1,0 C0.448,0 0,0.448 0,1 C0,1.552 0.448,2 1,2 L3.19,2 L6,15.21 C6.101,15.679 6.521,16.011 7,16" id="Fill-1" fill="#48288f" mask="url(#mask-3)"></path>
                    </g>
                    <path d="M8.5,22.0002 C7.671,22.0002 7,21.3282 7,20.5002 C7,19.6722 7.671,19.0002 8.5,19.0002 C9.329,19.0002 10,19.6722 10,20.5002 C10,21.3282 9.329,22.0002 8.5,22.0002 M8.5,17.0002 C6.567,17.0002 5,18.5672 5,20.5002 C5,22.4332 6.567,24.0002 8.5,24.0002 C10.433,24.0002 12,22.4332 12,20.5002 C12,18.5672 10.433,17.0002 8.5,17.0002" id="Fill-4" fill="#48288f"></path>
                    <path d="M18.5,22.0002 C17.672,22.0002 17,21.3282 17,20.5002 C17,19.6722 17.672,19.0002 18.5,19.0002 C19.328,19.0002 20,19.6722 20,20.5002 C20,21.3282 19.328,22.0002 18.5,22.0002 M18.5,17.0002 C16.567,17.0002 15,18.5672 15,20.5002 C15,22.4332 16.567,24.0002 18.5,24.0002 C20.433,24.0002 22,22.4332 22,20.5002 C22,18.5672 20.433,17.0002 18.5,17.0002" id="Fill-6" fill="#48288f"></path>
                </g>
            </g>
        </g>
    </g>
</svg>